<svg xmlns="http://www.w3.org/2000/svg" xmlns:xlink="http://www.w3.org/1999/xlink" version="1.1" width="256" height="256" viewBox="0 0 256 256" xml:space="preserve">

<defs>
</defs>
<g style="stroke: none; stroke-width: 0; stroke-dasharray: none; stroke-linecap: butt; stroke-linejoin: miter; stroke-miterlimit: 10; fill: none; fill-rule: nonzero; opacity: 1;" transform="translate(1.4065934065934016 1.4065934065934016) scale(2.81 2.81)" >
	<path d="M 35.514 49.873 c -3.326 2.455 -8.148 3.76 -12.3 3.76 c -5.819 0 -11.06 -2.151 -15.025 -5.732 c -0.311 -0.281 -0.034 -0.665 0.341 -0.448 c 4.278 2.49 9.57 3.989 15.034 3.989 c 3.686 0 7.739 -0.765 11.468 -2.347 C 35.593 48.857 36.064 49.466 35.514 49.873 z" style="stroke: none; stroke-width: 1; stroke-dasharray: none; stroke-linecap: butt; stroke-linejoin: miter; stroke-miterlimit: 10; fill: rgb(247,156,52); fill-rule: nonzero; opacity: 1;" transform=" matrix(1 0 0 1 0 0) " stroke-linecap="round" />
	<path d="M 36.898 48.292 c -0.426 -0.545 -2.812 -0.258 -3.884 -0.13 c -0.325 0.039 -0.375 -0.245 -0.083 -0.45 c 1.904 -1.337 5.024 -0.951 5.386 -0.503 c 0.365 0.451 -0.096 3.579 -1.88 5.072 c -0.275 0.229 -0.536 0.107 -0.414 -0.196 C 36.425 51.083 37.324 48.838 36.898 48.292 z" style="stroke: none; stroke-width: 1; stroke-dasharray: none; stroke-linecap: butt; stroke-linejoin: miter; stroke-miterlimit: 10; fill: rgb(247,156,52); fill-rule: nonzero; opacity: 1;" transform=" matrix(1 0 0 1 0 0) " stroke-linecap="round" />
	<path d="M 33.089 38.266 v -1.299 c 0.001 -0.198 0.15 -0.329 0.329 -0.329 l 5.824 -0.001 c 0.186 0 0.336 0.135 0.336 0.328 v 1.114 c -0.002 0.187 -0.16 0.431 -0.438 0.818 l -3.017 4.307 c 1.12 -0.026 2.304 0.142 3.322 0.713 c 0.229 0.129 0.291 0.32 0.309 0.507 v 1.386 c 0 0.191 -0.209 0.412 -0.429 0.297 c -1.792 -0.939 -4.171 -1.042 -6.153 0.011 c -0.202 0.108 -0.414 -0.11 -0.414 -0.301 v -1.318 c 0 -0.211 0.004 -0.572 0.217 -0.893 l 3.495 -5.014 l -3.043 -0.001 C 33.24 38.593 33.09 38.461 33.089 38.266 z" style="stroke: none; stroke-width: 1; stroke-dasharray: none; stroke-linecap: butt; stroke-linejoin: miter; stroke-miterlimit: 10; fill: rgb(51,62,71); fill-rule: nonzero; opacity: 1;" transform=" matrix(1 0 0 1 0 0) " stroke-linecap="round" />
	<path d="M 11.846 46.382 h -1.772 c -0.169 -0.011 -0.303 -0.137 -0.317 -0.299 l 0.002 -9.094 c 0 -0.182 0.153 -0.327 0.342 -0.327 l 1.65 -0.001 c 0.172 0.009 0.311 0.139 0.322 0.305 v 1.187 h 0.034 c 0.43 -1.148 1.24 -1.684 2.332 -1.684 c 1.108 0 1.803 0.536 2.299 1.684 c 0.43 -1.148 1.406 -1.684 2.447 -1.684 c 0.744 0 1.555 0.306 2.051 0.995 c 0.562 0.766 0.447 1.875 0.447 2.851 l -0.002 5.739 c 0 0.181 -0.152 0.327 -0.342 0.327 h -1.769 c -0.178 -0.011 -0.318 -0.152 -0.318 -0.326 l -0.001 -4.821 c 0 -0.382 0.033 -1.339 -0.05 -1.702 c -0.132 -0.613 -0.529 -0.785 -1.041 -0.785 c -0.43 0 -0.877 0.287 -1.059 0.746 c -0.182 0.46 -0.165 1.225 -0.165 1.742 v 4.82 c 0 0.181 -0.153 0.327 -0.342 0.327 h -1.77 c -0.178 -0.011 -0.318 -0.152 -0.318 -0.326 l -0.002 -4.821 c 0 -1.014 0.166 -2.506 -1.091 -2.506 c -1.274 0 -1.224 1.454 -1.224 2.506 l -0.001 4.82 C 12.187 46.236 12.035 46.382 11.846 46.382 z" style="stroke: none; stroke-width: 1; stroke-dasharray: none; stroke-linecap: butt; stroke-linejoin: miter; stroke-miterlimit: 10; fill: rgb(51,62,71); fill-rule: nonzero; opacity: 1;" transform=" matrix(1 0 0 1 0 0) " stroke-linecap="round" />
	<path d="M 44.608 38.326 c -1.306 0 -1.389 1.779 -1.389 2.889 c 0 1.11 -0.016 3.483 1.373 3.483 c 1.373 0 1.439 -1.914 1.439 -3.081 c 0 -0.765 -0.034 -1.684 -0.265 -2.411 C 45.567 38.574 45.17 38.326 44.608 38.326 z M 44.592 36.47 c 2.629 0 4.051 2.259 4.051 5.129 c 0 2.774 -1.571 4.975 -4.051 4.975 c -2.58 0 -3.986 -2.258 -3.986 -5.071 C 40.606 38.67 42.028 36.47 44.592 36.47 z" style="stroke: none; stroke-width: 1; stroke-dasharray: none; stroke-linecap: butt; stroke-linejoin: miter; stroke-miterlimit: 10; fill: rgb(51,62,71); fill-rule: nonzero; opacity: 1;" transform=" matrix(1 0 0 1 0 0) " stroke-linecap="round" />
	<path d="M 52.054 46.382 h -1.766 c -0.177 -0.011 -0.318 -0.152 -0.318 -0.326 l -0.003 -9.097 c 0.015 -0.167 0.162 -0.297 0.341 -0.297 l 1.643 -0.001 c 0.155 0.008 0.282 0.113 0.315 0.254 v 1.391 H 52.3 c 0.497 -1.244 1.191 -1.837 2.414 -1.837 c 0.794 0 1.571 0.287 2.068 1.072 c 0.463 0.727 0.463 1.951 0.463 2.832 v 5.722 c -0.019 0.161 -0.164 0.286 -0.34 0.286 h -1.776 c -0.164 -0.01 -0.296 -0.131 -0.316 -0.286 v -4.937 c 0 -0.995 0.116 -2.45 -1.108 -2.45 c -0.43 0 -0.827 0.287 -1.025 0.727 c -0.248 0.555 -0.281 1.11 -0.281 1.723 v 4.896 C 52.395 46.236 52.242 46.382 52.054 46.382 z" style="stroke: none; stroke-width: 1; stroke-dasharray: none; stroke-linecap: butt; stroke-linejoin: miter; stroke-miterlimit: 10; fill: rgb(51,62,71); fill-rule: nonzero; opacity: 1;" transform=" matrix(1 0 0 1 0 0) " stroke-linecap="round" />
	<path d="M 81.464 49.644 c 0 -0.23 0 -0.437 0 -0.668 c 0 -0.19 0.093 -0.321 0.292 -0.309 c 0.37 0.053 0.894 0.105 1.265 0.029 c 0.485 -0.101 0.834 -0.445 1.04 -0.917 c 0.29 -0.664 0.482 -1.199 0.604 -1.551 l -3.686 -9.131 c -0.062 -0.155 -0.081 -0.443 0.229 -0.443 h 1.288 c 0.246 0 0.346 0.156 0.401 0.309 l 2.672 7.417 l 2.551 -7.417 c 0.052 -0.152 0.157 -0.309 0.4 -0.309 h 1.215 c 0.307 0 0.29 0.287 0.229 0.443 l -3.656 9.416 c -0.473 1.253 -1.103 3.249 -2.523 3.596 c -0.712 0.186 -1.61 0.119 -2.137 -0.102 C 81.515 49.94 81.464 49.761 81.464 49.644 z" style="stroke: none; stroke-width: 1; stroke-dasharray: none; stroke-linecap: butt; stroke-linejoin: miter; stroke-miterlimit: 10; fill: rgb(51,62,71); fill-rule: nonzero; opacity: 1;" transform=" matrix(1 0 0 1 0 0) " stroke-linecap="round" />
	<path d="M 79.745 45.825 c 0 0.17 -0.139 0.309 -0.31 0.309 h -0.909 c -0.196 0 -0.33 -0.142 -0.355 -0.309 l -0.091 -0.618 c -0.418 0.353 -0.93 0.664 -1.486 0.88 c -1.069 0.415 -2.301 0.484 -3.345 -0.158 c -0.755 -0.463 -1.156 -1.37 -1.156 -2.304 c 0 -0.723 0.223 -1.44 0.717 -1.96 c 0.659 -0.711 1.615 -1.061 2.769 -1.061 c 0.697 0 1.694 0.082 2.42 0.319 v -1.245 c 0 -1.266 -0.533 -1.813 -1.938 -1.813 c -1.074 0 -1.895 0.162 -3.038 0.518 c -0.183 0.006 -0.29 -0.133 -0.29 -0.303 v -0.71 c 0 -0.17 0.145 -0.335 0.303 -0.385 c 0.816 -0.356 1.973 -0.578 3.202 -0.618 c 1.603 0 3.507 0.361 3.507 2.826 V 45.825 z M 77.999 44.008 V 42.13 c -0.61 -0.167 -1.619 -0.236 -2.009 -0.236 c -0.617 0 -1.293 0.146 -1.645 0.526 c -0.264 0.278 -0.383 0.678 -0.383 1.065 c 0 0.5 0.173 1.001 0.577 1.249 c 0.469 0.319 1.197 0.28 1.88 0.086 C 77.075 44.632 77.692 44.302 77.999 44.008 z" style="stroke: none; stroke-width: 1; stroke-dasharray: none; stroke-linecap: butt; stroke-linejoin: miter; stroke-miterlimit: 10; fill: rgb(51,62,71); fill-rule: nonzero; opacity: 1;" transform=" matrix(1 0 0 1 0 0) " stroke-linecap="round" />
	<path d="M 8.376 44.715 c -0.324 -0.447 -0.669 -0.811 -0.669 -1.642 v -2.76 c 0 -1.17 0.083 -2.244 -0.779 -3.05 c -0.664 -0.637 -1.754 -0.871 -2.607 -0.882 H 4.189 C 2.521 36.4 0.686 37.04 0.297 39.094 c -0.042 0.221 0.119 0.338 0.265 0.371 l 1.717 0.186 c 0.161 -0.008 0.277 -0.167 0.308 -0.326 c 0.147 -0.717 0.748 -1.064 1.424 -1.064 c 0.364 0 0.779 0.134 0.994 0.46 c 0.249 0.365 0.215 0.862 0.215 1.285 v 0.23 c -1.027 0.115 -2.37 0.192 -3.331 0.614 C 0.779 41.33 0 42.308 0 43.746 c 0 1.841 1.16 2.761 2.652 2.761 c 1.26 0 1.948 -0.297 2.921 -1.288 C 5.894 45.686 6 45.911 6.589 46.4 c 0.132 0.071 0.301 0.064 0.419 -0.041 l 0.004 0.004 c 0.353 -0.315 0.997 -0.873 1.359 -1.177 C 8.514 45.068 8.488 44.877 8.376 44.715 z M 4.889 43.919 c -0.281 0.498 -0.729 0.805 -1.227 0.805 c -0.679 0 -1.077 -0.517 -1.077 -1.285 c 0 -1.509 1.354 -1.784 2.635 -1.784 v 0.384 C 5.221 42.73 5.237 43.305 4.889 43.919 z" style="stroke: none; stroke-width: 1; stroke-dasharray: none; stroke-linecap: butt; stroke-linejoin: miter; stroke-miterlimit: 10; fill: rgb(51,62,71); fill-rule: nonzero; opacity: 1;" transform=" matrix(1 0 0 1 0 0) " stroke-linecap="round" />
	<path d="M 31.601 44.715 c -0.324 -0.447 -0.669 -0.811 -0.669 -1.642 v -2.76 c 0 -1.17 0.084 -2.244 -0.779 -3.05 c -0.664 -0.637 -1.754 -0.871 -2.607 -0.882 h -0.132 c -1.667 0.017 -3.502 0.658 -3.892 2.712 c -0.041 0.221 0.12 0.338 0.265 0.371 l 1.718 0.186 c 0.16 -0.008 0.276 -0.167 0.307 -0.326 c 0.148 -0.717 0.748 -1.064 1.424 -1.064 c 0.365 0 0.779 0.134 0.994 0.46 c 0.249 0.365 0.216 0.862 0.216 1.285 v 0.23 c -1.028 0.115 -2.37 0.192 -3.332 0.614 c -1.11 0.479 -1.89 1.457 -1.89 2.896 c 0 1.841 1.16 2.761 2.652 2.761 c 1.26 0 1.949 -0.297 2.921 -1.288 c 0.322 0.466 0.427 0.692 1.016 1.181 c 0.133 0.071 0.301 0.064 0.418 -0.041 l 0.005 0.004 c 0.353 -0.315 0.996 -0.873 1.358 -1.177 C 31.74 45.068 31.715 44.877 31.601 44.715 z M 28.115 43.919 c -0.282 0.498 -0.73 0.805 -1.227 0.805 c -0.679 0 -1.077 -0.517 -1.077 -1.285 c 0 -1.509 1.353 -1.784 2.635 -1.784 v 0.384 C 28.447 42.73 28.463 43.305 28.115 43.919 z" style="stroke: none; stroke-width: 1; stroke-dasharray: none; stroke-linecap: butt; stroke-linejoin: miter; stroke-miterlimit: 10; fill: rgb(51,62,71); fill-rule: nonzero; opacity: 1;" transform=" matrix(1 0 0 1 0 0) " stroke-linecap="round" />
	<path d="M 66.848 36.373 c -1.07 0 -2.193 0.497 -3.066 1.271 l -0.098 -0.664 c -0.025 -0.167 -0.159 -0.309 -0.355 -0.309 h -0.932 c -0.17 0 -0.309 0.139 -0.309 0.309 c 0 4.227 0 8.454 0 12.681 c 0 0.17 0.139 0.309 0.309 0.309 h 1.217 c 0.17 0 0.309 -0.139 0.309 -0.309 v -4.379 c 0.772 0.688 1.776 1.085 2.85 1.085 c 2.55 0 4.058 -2.208 4.058 -4.955 C 70.831 38.843 69.845 36.373 66.848 36.373 z M 68.066 44.233 c -0.474 0.468 -1.004 0.595 -1.801 0.595 c -0.71 0 -1.643 -0.37 -2.341 -0.886 v -5.19 c 0.726 -0.558 1.653 -0.859 2.424 -0.859 c 2.016 0 2.565 1.585 2.565 3.4 C 68.924 42.518 68.7 43.609 68.066 44.233 z" style="stroke: none; stroke-width: 1; stroke-dasharray: none; stroke-linecap: butt; stroke-linejoin: miter; stroke-miterlimit: 10; fill: rgb(51,62,71); fill-rule: nonzero; opacity: 1;" transform=" matrix(1 0 0 1 0 0) " stroke-linecap="round" />
</g>
</svg>